# xmcd
#
# Track frame offsets:
# 150
# 13552
# 27997
# 40340
# 56237
# 68392
# 83702
# 95637
# 108597
# 120240
# 134222
# 150992
# 161155
# 174922
# 186927
#
# Disc length: 2645 seconds
#
#
# Revision: 0
# Processed by: cddbd v1.5.2PL0 Copyright (c) Steve Scherf et al.
# Submitted via: FreeRIP 2.96 
#
DISCID=c10a530f
DTITLE=Minelli and João do Prado - A Viola e o Poeta
DYEAR=2003
DGENRE=Sertanejo
TTITLE0=No Passo Do Catingueiro
TTITLE1=Enigma Do Mundo
TTITLE2=No Braço Da Viola
TTITLE3=A Vida Do Caboclo
TTITLE4=Segura Peão Segura
TTITLE5=Surpresas Da Vida
TTITLE6=A Viola E O Poeta
TTITLE7=O Caipira
TTITLE8=Dormiu De Toca
TTITLE9=Quem É Quem
TTITLE10=Punho De Ferro
TTITLE11=O Aplauso É O Prêmio
TTITLE12=O Caboclo Decidido
TTITLE13=Direitos Humanos
TTITLE14=Eterna Paixão
EXTD=Ano 2003
EXTT0=
EXTT1=
EXTT2=
EXTT3=
EXTT4=
EXTT5=
EXTT6=
EXTT7=
EXTT8=
EXTT9=
EXTT10=
EXTT11=
EXTT12=
EXTT13=
EXTT14=
PLAYORDER=
